<svg xmlns="http://www.w3.org/2000/svg"  viewBox="0 0 48 48" width="48px" height="48px"><path d="M 24 2 C 17.942632 2 13 6.9426363 13 13 C 13 19.057364 17.942632 24 24 24 C 30.057368 24 35 19.057364 35 13 C 35 6.9426363 30.057368 2 24 2 z M 24 5 C 28.436049 5 32 8.5639537 32 13 C 32 17.436046 28.436049 21 24 21 C 19.563951 21 16 17.436046 16 13 C 16 8.5639537 19.563951 5 24 5 z M 24 8 C 22.458334 8 21.112148 8.6321335 20.253906 9.5976562 C 19.395664 10.563179 19 11.791667 19 13 C 19 14.208333 19.395664 15.436821 20.253906 16.402344 C 21.112148 17.367867 22.458334 18 24 18 C 25.541666 18 26.887852 17.367867 27.746094 16.402344 C 28.604336 15.436821 29 14.208333 29 13 C 29 11.791667 28.604336 10.563179 27.746094 9.5976562 C 26.887852 8.6321335 25.541666 8 24 8 z M 24 11 C 24.791666 11 25.195482 11.242867 25.503906 11.589844 C 25.81233 11.936821 26 12.458333 26 13 C 26 13.541667 25.81233 14.063179 25.503906 14.410156 C 25.195482 14.757133 24.791666 15 24 15 C 23.208334 15 22.804518 14.757133 22.496094 14.410156 C 22.18767 14.063179 22 13.541667 22 13 C 22 12.458333 22.18767 11.936821 22.496094 11.589844 C 22.804518 11.242867 23.208334 11 24 11 z M 14.988281 23.550781 C 13.46634 23.560143 11.978163 24.334903 11.142578 25.720703 C 9.8689024 27.834558 10.562387 30.625039 12.675781 31.898438 C 13.960643 32.672359 15.33075 33.250809 16.732422 33.740234 L 12.181641 38.455078 A 1.50015 1.50015 0 0 0 12.140625 38.5 C 10.500387 40.344336 10.669142 43.214596 12.513672 44.853516 C 14.357584 46.491886 17.225533 46.324202 18.865234 44.480469 L 18.824219 44.525391 L 24 39.166016 L 29.177734 44.525391 L 29.136719 44.480469 C 30.019437 45.473341 31.261875 45.990234 32.5 45.990234 C 33.561609 45.990234 34.63753 45.611031 35.488281 44.855469 A 1.50015 1.50015 0 0 0 35.488281 44.853516 C 37.331714 43.214081 37.501299 40.34599 35.861328 38.501953 A 1.50015 1.50015 0 0 0 35.820312 38.455078 L 31.265625 33.742188 C 32.667647 33.252744 34.039312 32.672387 35.324219 31.898438 C 37.436821 30.624026 38.131098 27.834558 36.857422 25.720703 C 35.585161 23.608214 32.794829 22.914843 30.679688 24.1875 C 26.688264 26.591597 21.310916 26.591745 17.318359 24.1875 C 16.789713 23.869195 16.2193 23.674736 15.640625 23.59375 C 15.423622 23.56338 15.205701 23.549444 14.988281 23.550781 z M 14.916016 26.537109 C 15.203241 26.523534 15.499454 26.594022 15.771484 26.757812 C 20.762408 29.763255 27.236197 29.762777 32.226562 26.757812 C 32.953421 26.32047 33.85137 26.54602 34.287109 27.269531 C 34.723138 27.993186 34.499616 28.890207 33.775391 29.328125 C 32.036406 30.375584 30.14107 31.126459 28.166016 31.570312 A 1.50015 1.50015 0 0 0 27.416016 34.076172 L 33.623047 40.501953 C 34.178847 41.133727 34.12646 42.05072 33.496094 42.611328 C 33.202845 42.871766 32.856391 42.990234 32.5 42.990234 C 32.084125 42.990234 31.682188 42.829409 31.378906 42.488281 A 1.50015 1.50015 0 0 0 31.335938 42.441406 L 25.078125 35.964844 A 1.50015 1.50015 0 0 0 22.921875 35.964844 L 16.666016 42.441406 A 1.50015 1.50015 0 0 0 16.625 42.486328 C 16.062701 43.118595 15.137947 43.172957 14.505859 42.611328 C 13.874389 42.050248 13.821051 41.125804 14.382812 40.494141 L 20.582031 34.074219 A 1.50015 1.50015 0 0 0 19.832031 31.568359 C 17.857944 31.124515 15.961641 30.375584 14.222656 29.328125 C 13.498051 28.891523 13.274612 27.993676 13.710938 27.269531 C 13.929301 26.907379 14.263155 26.670059 14.632812 26.578125 C 14.725227 26.555142 14.820274 26.541634 14.916016 26.537109 z"/></svg>